<svg width="3786" height="764" viewBox="0 0 3786 764" fill="none" xmlns="http://www.w3.org/2000/svg">
<path d="M3.42727e-06 751V187H97V271C106.333 262.333 118.333 252.667 133 242C148.333 230.667 165.333 220 184 210C203.333 200 224 191.667 246 185C268 177.667 291 174 315 174C361 174 396.333 182.667 421 200C445.667 217.333 462.667 244.333 472 281C480 273.667 491.333 264 506 252C520.667 240 538 228.333 558 217C578 205 600 195 624 187C648.667 178.333 674.333 174 701 174C733.667 174 760.667 178.333 782 187C803.333 195.667 820.333 209 833 227C846.333 244.333 855.667 266.667 861 294C866.333 321.333 869 353.667 869 391V751H772V391C772 351 767.667 321 759 301C750.333 281 731 271 701 271C680.333 271 659.333 274.667 638 282C616.667 289.333 596 298.333 576 309C556.667 319 538.667 329.667 522 341C506 352.333 493 362 483 370V751H386V391C386 351 381.667 321 373 301C364.333 281 345 271 315 271C294.333 271 273.333 274.667 252 282C230.667 289.333 210.333 298.333 191 309C171.667 319 153.667 329.667 137 341C121 352.333 107.667 362 97 370V751H3.42727e-06ZM1113.98 420C1117.32 420 1120.65 420.333 1123.98 421C1127.32 421 1130.65 421 1133.98 421C1133.98 421 1142.98 421.667 1160.98 423C1179.65 424.333 1201.98 426 1227.98 428C1254.65 429.333 1282.32 431 1310.98 433C1339.65 435 1364.65 436.667 1385.98 438V391C1385.98 383.667 1384.98 373 1382.98 359C1381.65 344.333 1376.65 330 1367.98 316C1359.32 302 1345.65 290 1326.98 280C1308.32 269.333 1282.32 264 1248.98 264C1210.98 264 1182.65 270 1163.98 282C1145.32 294 1131.98 307.333 1123.98 322C1114.65 339.333 1110.32 359 1110.98 381H1005.98C1003.32 342.333 1009.98 307.667 1025.98 277C1032.65 264.333 1041.65 252 1052.98 240C1064.32 227.333 1078.98 216.333 1096.98 207C1114.98 197 1136.32 189 1160.98 183C1185.65 177 1214.98 174 1248.98 174C1302.98 174 1345.32 182.667 1375.98 200C1407.32 216.667 1430.65 236.667 1445.98 260C1461.98 283.333 1471.98 307.333 1475.98 332C1480.65 356 1482.98 375.667 1482.98 391V751H1385.98V683C1363.98 702.333 1334.65 720.667 1297.98 738C1261.32 755.333 1216.65 764 1163.98 764C1091.32 764 1033.98 748.667 991.984 718C949.984 687.333 928.984 641.667 928.984 581C928.984 549 934.651 522.667 945.984 502C957.318 480.667 971.651 464 988.984 452C1006.98 440 1026.98 431.667 1048.98 427C1070.98 422.333 1092.65 420 1113.98 420ZM1033.98 581C1033.98 616.333 1045.98 640.667 1069.98 654C1094.65 667.333 1125.98 674 1163.98 674C1216.65 674 1261.32 665.667 1297.98 649C1334.65 631.667 1363.98 613.667 1385.98 595V521L1133.98 505C1121.32 505 1108.98 506.333 1096.98 509C1084.98 511 1074.32 515 1064.98 521C1055.65 526.333 1047.98 534 1041.98 544C1036.65 553.333 1033.98 565.667 1033.98 581ZM1573.24 751V187H1670.24V291C1670.24 291 1675.24 285 1685.24 273C1695.91 260.333 1710.91 247 1730.24 233C1749.58 218.333 1773.24 205 1801.24 193C1829.24 180.333 1860.58 174 1895.24 174C1931.24 174 1960.91 179.333 1984.24 190C2008.24 200 2027.24 214 2041.24 232C2055.24 249.333 2064.91 270 2070.24 294C2075.58 318 2078.24 343.667 2078.24 371H1981.24C1981.24 355.667 1980.24 342 1978.24 330C1976.24 318 1971.58 307.667 1964.24 299C1956.91 289.667 1946.24 282.667 1932.24 278C1918.24 273.333 1899.24 271 1875.24 271C1849.24 271 1823.91 277 1799.24 289C1775.24 301 1753.58 314.333 1734.24 329C1711.58 346.333 1690.24 366 1670.24 388V751H1573.24ZM2245.44 -4.673e-05V427L2546.44 187H2693.44L2464.44 370L2698.44 751H2581.44L2386.44 433L2245.44 545V751H2148.44V-4.673e-05H2245.44ZM2738.55 469C2738.55 423.667 2745.89 383 2760.55 347C2775.22 311 2795.22 280.333 2820.55 255C2846.55 229 2877.22 209.333 2912.55 196C2947.89 182 2986.22 175 3027.55 175C3065.55 175 3098.22 180 3125.55 190C3153.55 199.333 3177.22 212 3196.55 228C3215.89 243.333 3231.55 261.333 3243.55 282C3255.55 302 3264.89 322.667 3271.55 344C3286.89 393.333 3291.89 449.667 3286.55 513H2846.55C2850.55 542.333 2858.22 567.333 2869.55 588C2880.89 608 2894.55 624.667 2910.55 638C2927.22 650.667 2945.55 660 2965.55 666C2985.55 671.333 3006.22 674 3027.55 674C3069.55 674 3100.89 668.667 3121.55 658C3142.22 647.333 3156.89 635.333 3165.55 622C3175.55 607.333 3180.22 590.333 3179.55 571H3286.55C3285.22 607 3275.22 639 3256.55 667C3248.55 679 3238.22 691 3225.55 703C3213.55 714.333 3198.22 724.667 3179.55 734C3161.55 742.667 3139.89 749.667 3114.55 755C3089.89 761 3060.89 764 3027.55 764C2986.22 764 2947.89 757 2912.55 743C2877.22 729 2846.55 709.333 2820.55 684C2795.22 658.667 2775.22 627.667 2760.55 591C2745.89 554.333 2738.55 513.667 2738.55 469ZM3181.55 421C3182.22 391.667 3177.22 365.667 3166.55 343C3157.22 323.667 3142.22 306 3121.55 290C3100.89 273.333 3069.55 265 3027.55 265C3006.89 265 2986.55 268 2966.55 274C2946.55 279.333 2928.22 288.333 2911.55 301C2895.55 313 2881.89 329 2870.55 349C2859.22 368.333 2851.22 392.333 2846.55 421H3181.55ZM3349.88 279V187H3444.88V107H3541.88V187H3785.88V279H3541.88V577C3541.88 597.667 3543.22 614.333 3545.88 627C3548.55 639.667 3553.22 649.667 3559.88 657C3566.55 663.667 3575.55 668.333 3586.88 671C3598.22 673 3612.55 674 3629.88 674C3646.55 674 3663.88 672.333 3681.88 669C3699.88 665.667 3716.55 662.333 3731.88 659C3750.55 654.333 3768.55 649.333 3785.88 644V734C3769.22 739.333 3751.88 744.333 3733.88 749C3718.55 753 3701.55 756.333 3682.88 759C3664.88 762.333 3647.22 764 3629.88 764C3585.22 764 3550.22 759 3524.88 749C3500.22 739 3481.88 725.667 3469.88 709C3457.88 691.667 3450.55 671.667 3447.88 649C3445.88 626.333 3444.88 602.333 3444.88 577V279H3349.88Z" fill="white"/>
</svg>
