<svg width="3459" height="967" viewBox="0 0 3459 967" fill="none" xmlns="http://www.w3.org/2000/svg">
<path d="M297 168C342.333 168 383 174 419 186C455.667 198 486.667 216.333 512 241C538 265.667 558 297 572 335C586 373 593 417.667 593 469C593 520.333 586 565 572 603C558 641 538 672.333 512 697C486.667 721.667 455.667 740 419 752C383 764 342.333 770 297 770C206.333 770 134 745.667 80 697C26.6667 647.667 1.74344e-06 571.667 1.74344e-06 469C1.74344e-06 417.667 7 373 21 335C35 297 54.6667 265.667 80 241C106 216.333 137.333 198 174 186C210.667 174 251.667 168 297 168ZM297 639C312.333 639 327 636 341 630C355 624 367 614.333 377 601C387.667 587.667 396 570.333 402 549C408 527 411 500.333 411 469C411 437.667 408 411.333 402 390C396 368 387.667 350.333 377 337C367 323.667 355 314 341 308C327 302 312.333 299 297 299C281 299 266 302 252 308C238.667 314 226.667 323.667 216 337C206 350.333 198 368 192 390C186 411.333 183 437.667 183 469C183 500.333 186 527 192 549C198 570.333 206 587.667 216 601C226.667 614.333 238.667 624 252 630C266 636 281 639 297 639ZM666.719 941V187H842.719V248C842.719 248 846.385 244.333 853.719 237C861.052 229.667 872.052 221.333 886.719 212C901.385 202.667 919.719 194.333 941.719 187C963.719 179 989.052 175 1017.72 175C1053.05 175 1085.39 181.333 1114.72 194C1144.05 206 1169.05 224.333 1189.72 249C1211.05 273 1227.39 303.333 1238.72 340C1250.72 376.667 1256.72 419.667 1256.72 469C1256.72 517.667 1250.72 560.667 1238.72 598C1227.39 634.667 1211.05 665.333 1189.72 690C1169.05 714.667 1144.05 733.333 1114.72 746C1085.39 758 1053.05 764 1017.72 764C987.052 764 960.719 760 938.719 752C916.719 744 898.385 735.333 883.719 726C867.052 714.667 853.385 702 842.719 688V941H666.719ZM967.719 632C1001.72 632 1027.72 618.667 1045.72 592C1064.39 564.667 1073.72 523.667 1073.72 469C1073.72 414.333 1064.39 373.667 1045.72 347C1027.72 319.667 1001.72 306 967.719 306C927.719 306 896.719 321.333 874.719 352C853.385 382 842.719 421 842.719 469C842.719 517 853.385 556.333 874.719 587C896.719 617 927.719 632 967.719 632ZM1300.78 469C1300.78 419 1308.11 375.333 1322.78 338C1337.45 300.667 1358.11 269.333 1384.78 244C1411.45 218.667 1442.78 199.667 1478.78 187C1515.45 174.333 1555.78 168 1599.78 168C1641.11 168 1676.45 173.333 1705.78 184C1735.11 194 1759.78 207.333 1779.78 224C1799.78 240.667 1815.45 259.667 1826.78 281C1838.78 302.333 1847.78 324 1853.78 346C1868.45 398 1871.11 457.333 1861.78 524H1485.78C1491.11 568 1503.11 600.667 1521.78 622C1541.11 643.333 1565.11 654 1593.78 654C1619.78 654 1638.78 649.333 1650.78 640C1663.45 630.667 1672.11 620.333 1676.78 609C1682.11 596.333 1684.11 581.667 1682.78 565H1861.78C1863.11 603 1854.78 637 1836.78 667C1829.45 679.667 1819.45 692.333 1806.78 705C1794.78 717.667 1779.11 728.667 1759.78 738C1741.11 747.333 1718.45 755 1691.78 761C1665.78 767 1635.11 770 1599.78 770C1555.78 770 1515.45 763.667 1478.78 751C1442.78 738.333 1411.45 719.333 1384.78 694C1358.11 668.667 1337.45 637.333 1322.78 600C1308.11 562 1300.78 518.333 1300.78 469ZM1681.78 415C1683.78 391 1682.11 369.333 1676.78 350C1672.11 333.333 1663.45 318.333 1650.78 305C1638.78 291.667 1619.78 285 1593.78 285C1565.11 285 1541.11 295.667 1521.78 317C1503.11 338.333 1491.11 371 1485.78 415H1681.78ZM1951.88 187H2127.88V276C2127.88 276 2133.54 270.667 2144.88 260C2156.88 249.333 2172.21 238 2190.88 226C2209.54 213.333 2230.54 201.667 2253.88 191C2277.21 180.333 2300.88 175 2324.88 175C2389.54 175 2436.54 195.333 2465.88 236C2495.88 276 2510.88 335.333 2510.88 414V751H2333.88V414C2333.88 380.667 2329.21 354.667 2319.88 336C2311.21 317.333 2293.21 308 2265.88 308C2252.54 308 2237.54 312.333 2220.88 321C2204.88 329.667 2189.88 339.333 2175.88 350C2159.88 362 2143.88 376 2127.88 392V751H1951.88V187ZM2594.45 -4.673e-05H2771.45V751H2594.45V-4.673e-05ZM3026.7 187L3153.7 566L3273.7 187H3458.7L3241.7 751C3237.7 791 3226.37 827 3207.7 859C3199.7 872.333 3189.7 885.333 3177.7 898C3165.7 911.333 3151.04 923 3133.7 933C3117.04 943 3097.37 951 3074.7 957C3052.04 963.667 3026.04 967 2996.7 967C2975.37 967 2955.37 965 2936.7 961C2918.04 957.667 2901.7 953.667 2887.7 949C2871.7 943.667 2856.7 937.667 2842.7 931V811C2854.7 818.333 2868.04 825 2882.7 831C2895.37 836.333 2909.7 841 2925.7 845C2941.7 849 2958.7 851 2976.7 851C3000.7 851 3019.04 845.667 3031.7 835C3044.37 825 3053.37 813.667 3058.7 801C3065.37 786.333 3068.7 769.667 3068.7 751L2841.7 187H3026.7Z" fill="white"/>
</svg>
