<svg width="3050" height="3599" viewBox="0 0 3050 3599" fill="none" xmlns="http://www.w3.org/2000/svg">
<path d="M1527.57 0C1760.74 0 1969.9 30.8574 2155.06 92.5722C2343.65 154.287 2503.09 248.573 2633.39 375.431C2767.12 502.29 2869.98 663.434 2941.99 858.864C3014 1054.29 3050 1284.01 3050 1548.01C3050 1812.01 3014 2041.73 2941.99 2237.16C2869.98 2432.59 2767.12 2593.73 2633.39 2720.59C2503.09 2847.45 2343.65 2941.74 2155.06 3003.45C1969.9 3065.17 1760.74 3096.02 1527.57 3096.02C1061.24 3096.02 689.207 2970.88 411.467 2720.59C137.156 2466.88 0 2076.02 0 1548.01C0 1284.01 36.0034 1054.29 108.01 858.864C180.017 663.434 281.169 502.29 411.467 375.431C545.194 248.573 706.352 154.287 894.941 92.5722C1083.53 30.8574 1294.41 0 1527.57 0ZM1527.57 2422.3C1606.44 2422.3 1681.87 2406.88 1753.88 2376.02C1825.89 2345.16 1887.61 2295.45 1939.04 2226.87C1993.9 2158.3 2036.76 2069.16 2067.62 1959.44C2098.48 1846.3 2113.91 1709.16 2113.91 1548.01C2113.91 1386.87 2098.48 1251.44 2067.62 1141.72C2036.76 1028.58 1993.9 937.722 1939.04 869.15C1887.61 800.578 1825.89 750.863 1753.88 720.006C1681.87 689.148 1606.44 673.72 1527.57 673.72C1445.28 673.72 1368.13 689.148 1296.12 720.006C1227.54 750.863 1165.82 800.578 1110.96 869.15C1059.53 937.722 1018.38 1028.58 987.521 1141.72C956.661 1251.44 941.231 1386.87 941.231 1548.01C941.231 1709.16 956.661 1846.3 987.521 1959.44C1018.38 2069.16 1059.53 2158.3 1110.96 2226.87C1165.82 2295.45 1227.54 2345.16 1296.12 2376.02C1368.13 2406.88 1445.28 2422.3 1527.57 2422.3Z" fill="white"/>
<path d="M2710.33 1543.38C2710.33 2198.08 2179.55 2728.82 1524.79 2728.82C870.036 2728.82 339.251 2198.08 339.251 1543.38C339.251 888.684 870.036 357.946 1524.79 357.946C2179.55 357.946 2710.33 888.684 2710.33 1543.38Z" fill="white"/>
<ellipse cx="1525.5" cy="3333" rx="881.5" ry="110" fill="white"/>
</svg>
