<svg width="6750" height="974" viewBox="0 0 6750 974" fill="none" xmlns="http://www.w3.org/2000/svg">
<path d="M51.7773 948V194H227.777V255C227.777 255 231.444 251.333 238.777 244C246.111 236.667 257.111 228.333 271.777 219C286.444 209.667 304.777 201.333 326.777 194C348.777 186 374.111 182 402.777 182C438.111 182 470.444 188.333 499.777 201C529.111 213 554.111 231.333 574.777 256C596.111 280 612.444 310.333 623.777 347C635.777 383.667 641.777 426.667 641.777 476C641.777 524.667 635.777 567.667 623.777 605C612.444 641.667 596.111 672.333 574.777 697C554.111 721.667 529.111 740.333 499.777 753C470.444 765 438.111 771 402.777 771C372.111 771 345.777 767 323.777 759C301.777 751 283.444 742.333 268.777 733C252.111 721.667 238.444 709 227.777 695V948H51.7773ZM352.777 639C386.777 639 412.777 625.667 430.777 599C449.444 571.667 458.777 530.667 458.777 476C458.777 421.333 449.444 380.667 430.777 354C412.777 326.667 386.777 313 352.777 313C312.777 313 281.777 328.333 259.777 359C238.444 389 227.777 428 227.777 476C227.777 524 238.444 563.333 259.777 594C281.777 624 312.777 639 352.777 639ZM685.84 476C685.84 426 693.173 382.333 707.84 345C722.507 307.667 743.173 276.333 769.84 251C796.507 225.667 827.84 206.667 863.84 194C900.507 181.333 940.84 175 984.84 175C1026.17 175 1061.51 180.333 1090.84 191C1120.17 201 1144.84 214.333 1164.84 231C1184.84 247.667 1200.51 266.667 1211.84 288C1223.84 309.333 1232.84 331 1238.84 353C1253.51 405 1256.17 464.333 1246.84 531H870.84C876.173 575 888.173 607.667 906.84 629C926.173 650.333 950.173 661 978.84 661C1004.84 661 1023.84 656.333 1035.84 647C1048.51 637.667 1057.17 627.333 1061.84 616C1067.17 603.333 1069.17 588.667 1067.84 572H1246.84C1248.17 610 1239.84 644 1221.84 674C1214.51 686.667 1204.51 699.333 1191.84 712C1179.84 724.667 1164.17 735.667 1144.84 745C1126.17 754.333 1103.51 762 1076.84 768C1050.84 774 1020.17 777 984.84 777C940.84 777 900.507 770.667 863.84 758C827.84 745.333 796.507 726.333 769.84 701C743.173 675.667 722.507 644.333 707.84 607C693.173 569 685.84 525.333 685.84 476ZM1066.84 422C1068.84 398 1067.17 376.333 1061.84 357C1057.17 340.333 1048.51 325.333 1035.84 312C1023.84 298.667 1004.84 292 978.84 292C950.173 292 926.173 302.667 906.84 324C888.173 345.333 876.173 378 870.84 422H1066.84ZM1336.93 194H1512.93V283C1512.93 283 1518.6 277.667 1529.93 267C1541.93 256.333 1557.27 245 1575.93 233C1594.6 220.333 1615.6 208.667 1638.93 198C1662.27 187.333 1685.93 182 1709.93 182C1774.6 182 1821.6 202.333 1850.93 243C1880.93 283 1895.93 342.333 1895.93 421V758H1718.93V421C1718.93 387.667 1714.27 361.667 1704.93 343C1696.27 324.333 1678.27 315 1650.93 315C1637.6 315 1622.6 319.333 1605.93 328C1589.93 336.667 1574.93 346.333 1560.93 357C1544.93 369 1528.93 383 1512.93 399V758H1336.93V194ZM1979.51 6.99995H2156.51V758H1979.51V6.99995ZM2411.76 194L2538.76 573L2658.76 194H2843.76L2626.76 758C2622.76 798 2611.43 834 2592.76 866C2584.76 879.333 2574.76 892.333 2562.76 905C2550.76 918.333 2536.1 930 2518.76 940C2502.1 950 2482.43 958 2459.76 964C2437.1 970.667 2411.1 974 2381.76 974C2360.43 974 2340.43 972 2321.76 968C2303.1 964.667 2286.76 960.667 2272.76 956C2256.76 950.667 2241.76 944.667 2227.76 938V818C2239.76 825.333 2253.1 832 2267.76 838C2280.43 843.333 2294.76 848 2310.76 852C2326.76 856 2343.76 858 2361.76 858C2385.76 858 2404.1 852.667 2416.76 842C2429.43 832 2438.43 820.667 2443.76 808C2450.43 793.333 2453.76 776.667 2453.76 758L2226.76 194H2411.76Z" fill="white"/>
<path d="M2914.89 755V191H3011.89V275C3021.23 266.333 3033.23 256.667 3047.89 246C3063.23 234.667 3080.23 224 3098.89 214C3118.23 204 3138.89 195.667 3160.89 189C3182.89 181.667 3205.89 178 3229.89 178C3275.89 178 3311.23 186.667 3335.89 204C3360.56 221.333 3377.56 248.333 3386.89 285C3394.89 277.667 3406.23 268 3420.89 256C3435.56 244 3452.89 232.333 3472.89 221C3492.89 209 3514.89 199 3538.89 191C3563.56 182.333 3589.23 178 3615.89 178C3648.56 178 3675.56 182.333 3696.89 191C3718.23 199.667 3735.23 213 3747.89 231C3761.23 248.333 3770.56 270.667 3775.89 298C3781.23 325.333 3783.89 357.667 3783.89 395V755H3686.89V395C3686.89 355 3682.56 325 3673.89 305C3665.23 285 3645.89 275 3615.89 275C3595.23 275 3574.23 278.667 3552.89 286C3531.56 293.333 3510.89 302.333 3490.89 313C3471.56 323 3453.56 333.667 3436.89 345C3420.89 356.333 3407.89 366 3397.89 374V755H3300.89V395C3300.89 355 3296.56 325 3287.89 305C3279.23 285 3259.89 275 3229.89 275C3209.23 275 3188.23 278.667 3166.89 286C3145.56 293.333 3125.23 302.333 3105.89 313C3086.56 323 3068.56 333.667 3051.89 345C3035.89 356.333 3022.56 366 3011.89 374V755H2914.89ZM4028.88 424C4032.21 424 4035.55 424.333 4038.88 425C4042.21 425 4045.55 425 4048.88 425C4048.88 425 4057.88 425.667 4075.88 427C4094.55 428.333 4116.88 430 4142.88 432C4169.55 433.333 4197.21 435 4225.88 437C4254.55 439 4279.55 440.667 4300.88 442V395C4300.88 387.667 4299.88 377 4297.88 363C4296.55 348.333 4291.55 334 4282.88 320C4274.21 306 4260.55 294 4241.88 284C4223.21 273.333 4197.21 268 4163.88 268C4125.88 268 4097.55 274 4078.88 286C4060.21 298 4046.88 311.333 4038.88 326C4029.55 343.333 4025.21 363 4025.88 385H3920.88C3918.21 346.333 3924.88 311.667 3940.88 281C3947.55 268.333 3956.55 256 3967.88 244C3979.21 231.333 3993.88 220.333 4011.88 211C4029.88 201 4051.21 193 4075.88 187C4100.55 181 4129.88 178 4163.88 178C4217.88 178 4260.21 186.667 4290.88 204C4322.21 220.667 4345.55 240.667 4360.88 264C4376.88 287.333 4386.88 311.333 4390.88 336C4395.55 360 4397.88 379.667 4397.88 395V755H4300.88V687C4278.88 706.333 4249.55 724.667 4212.88 742C4176.21 759.333 4131.55 768 4078.88 768C4006.21 768 3948.88 752.667 3906.88 722C3864.88 691.333 3843.88 645.667 3843.88 585C3843.88 553 3849.55 526.667 3860.88 506C3872.21 484.667 3886.55 468 3903.88 456C3921.88 444 3941.88 435.667 3963.88 431C3985.88 426.333 4007.55 424 4028.88 424ZM3948.88 585C3948.88 620.333 3960.88 644.667 3984.88 658C4009.55 671.333 4040.88 678 4078.88 678C4131.55 678 4176.21 669.667 4212.88 653C4249.55 635.667 4278.88 617.667 4300.88 599V525L4048.88 509C4036.21 509 4023.88 510.333 4011.88 513C3999.88 515 3989.21 519 3979.88 525C3970.55 530.333 3962.88 538 3956.88 548C3951.55 557.333 3948.88 569.667 3948.88 585ZM4488.14 755V191H4585.14V295C4585.14 295 4590.14 289 4600.14 277C4610.8 264.333 4625.8 251 4645.14 237C4664.47 222.333 4688.14 209 4716.14 197C4744.14 184.333 4775.47 178 4810.14 178C4846.14 178 4875.8 183.333 4899.14 194C4923.14 204 4942.14 218 4956.14 236C4970.14 253.333 4979.8 274 4985.14 298C4990.47 322 4993.14 347.667 4993.14 375H4896.14C4896.14 359.667 4895.14 346 4893.14 334C4891.14 322 4886.47 311.667 4879.14 303C4871.8 293.667 4861.14 286.667 4847.14 282C4833.14 277.333 4814.14 275 4790.14 275C4764.14 275 4738.8 281 4714.14 293C4690.14 305 4668.47 318.333 4649.14 333C4626.47 350.333 4605.14 370 4585.14 392V755H4488.14ZM5160.33 3.99995V431L5461.33 191H5608.33L5379.33 374L5613.33 755H5496.33L5301.33 437L5160.33 549V755H5063.33V3.99995H5160.33ZM5653.45 473C5653.45 427.667 5660.78 387 5675.45 351C5690.12 315 5710.12 284.333 5735.45 259C5761.45 233 5792.12 213.333 5827.45 200C5862.78 186 5901.12 179 5942.45 179C5980.45 179 6013.12 184 6040.45 194C6068.45 203.333 6092.12 216 6111.45 232C6130.78 247.333 6146.45 265.333 6158.45 286C6170.45 306 6179.78 326.667 6186.45 348C6201.78 397.333 6206.78 453.667 6201.45 517H5761.45C5765.45 546.333 5773.12 571.333 5784.45 592C5795.78 612 5809.45 628.667 5825.45 642C5842.12 654.667 5860.45 664 5880.45 670C5900.45 675.333 5921.12 678 5942.45 678C5984.45 678 6015.78 672.667 6036.45 662C6057.12 651.333 6071.78 639.333 6080.45 626C6090.45 611.333 6095.12 594.333 6094.45 575H6201.45C6200.12 611 6190.12 643 6171.45 671C6163.45 683 6153.12 695 6140.45 707C6128.45 718.333 6113.12 728.667 6094.45 738C6076.45 746.667 6054.78 753.667 6029.45 759C6004.78 765 5975.78 768 5942.45 768C5901.12 768 5862.78 761 5827.45 747C5792.12 733 5761.45 713.333 5735.45 688C5710.12 662.667 5690.12 631.667 5675.45 595C5660.78 558.333 5653.45 517.667 5653.45 473ZM6096.45 425C6097.12 395.667 6092.12 369.667 6081.45 347C6072.12 327.667 6057.12 310 6036.45 294C6015.78 277.333 5984.45 269 5942.45 269C5921.78 269 5901.45 272 5881.45 278C5861.45 283.333 5843.12 292.333 5826.45 305C5810.45 317 5796.78 333 5785.45 353C5774.12 372.333 5766.12 396.333 5761.45 425H6096.45ZM6264.78 283V191H6359.78V111H6456.78V191H6700.78V283H6456.78V581C6456.78 601.667 6458.11 618.333 6460.78 631C6463.44 643.667 6468.11 653.667 6474.78 661C6481.44 667.667 6490.44 672.333 6501.78 675C6513.11 677 6527.44 678 6544.78 678C6561.44 678 6578.78 676.333 6596.78 673C6614.78 669.667 6631.44 666.333 6646.78 663C6665.44 658.333 6683.44 653.333 6700.78 648V738C6684.11 743.333 6666.78 748.333 6648.78 753C6633.44 757 6616.44 760.333 6597.78 763C6579.78 766.333 6562.11 768 6544.78 768C6500.11 768 6465.11 763 6439.78 753C6415.11 743 6396.78 729.667 6384.78 713C6372.78 695.667 6365.44 675.667 6362.78 653C6360.78 630.333 6359.78 606.333 6359.78 581V283H6264.78Z" fill="white"/>
</svg>
