<svg width="8496" height="971" viewBox="0 0 8496 971" fill="none" xmlns="http://www.w3.org/2000/svg">
<circle cx="976" cy="473" r="256" fill="black"/>
<ellipse cx="981" cy="910" rx="245" ry="38" fill="black"/>
<path d="M980.418 172C1025.75 172 1066.42 178 1102.42 190C1139.08 202 1170.08 220.333 1195.42 245C1221.42 269.667 1241.42 301 1255.42 339C1269.42 377 1276.42 421.667 1276.42 473C1276.42 524.333 1269.42 569 1255.42 607C1241.42 645 1221.42 676.333 1195.42 701C1170.08 725.667 1139.08 744 1102.42 756C1066.42 768 1025.75 774 980.418 774C889.751 774 817.418 749.667 763.418 701C710.085 651.667 683.418 575.667 683.418 473C683.418 421.667 690.418 377 704.418 339C718.418 301 738.085 269.667 763.418 245C789.418 220.333 820.751 202 857.418 190C894.085 178 935.085 172 980.418 172ZM980.418 643C995.751 643 1010.42 640 1024.42 634C1038.42 628 1050.42 618.333 1060.42 605C1071.08 591.667 1079.42 574.333 1085.42 553C1091.42 531 1094.42 504.333 1094.42 473C1094.42 441.667 1091.42 415.333 1085.42 394C1079.42 372 1071.08 354.333 1060.42 341C1050.42 327.667 1038.42 318 1024.42 312C1010.42 306 995.751 303 980.418 303C964.418 303 949.418 306 935.418 312C922.085 318 910.085 327.667 899.418 341C889.418 354.333 881.418 372 875.418 394C869.418 415.333 866.418 441.667 866.418 473C866.418 504.333 869.418 531 875.418 553C881.418 574.333 889.418 591.667 899.418 605C910.085 618.333 922.085 628 935.418 634C949.418 640 964.418 643 980.418 643ZM1350.14 945V191H1526.14V252C1526.14 252 1529.8 248.333 1537.14 241C1544.47 233.667 1555.47 225.333 1570.14 216C1584.8 206.667 1603.14 198.333 1625.14 191C1647.14 183 1672.47 179 1701.14 179C1736.47 179 1768.8 185.333 1798.14 198C1827.47 210 1852.47 228.333 1873.14 253C1894.47 277 1910.8 307.333 1922.14 344C1934.14 380.667 1940.14 423.667 1940.14 473C1940.14 521.667 1934.14 564.667 1922.14 602C1910.8 638.667 1894.47 669.333 1873.14 694C1852.47 718.667 1827.47 737.333 1798.14 750C1768.8 762 1736.47 768 1701.14 768C1670.47 768 1644.14 764 1622.14 756C1600.14 748 1581.8 739.333 1567.14 730C1550.47 718.667 1536.8 706 1526.14 692V945H1350.14ZM1651.14 636C1685.14 636 1711.14 622.667 1729.14 596C1747.8 568.667 1757.14 527.667 1757.14 473C1757.14 418.333 1747.8 377.667 1729.14 351C1711.14 323.667 1685.14 310 1651.14 310C1611.14 310 1580.14 325.333 1558.14 356C1536.8 386 1526.14 425 1526.14 473C1526.14 521 1536.8 560.333 1558.14 591C1580.14 621 1611.14 636 1651.14 636ZM1984.2 473C1984.2 423 1991.53 379.333 2006.2 342C2020.87 304.667 2041.53 273.333 2068.2 248C2094.87 222.667 2126.2 203.667 2162.2 191C2198.87 178.333 2239.2 172 2283.2 172C2324.53 172 2359.87 177.333 2389.2 188C2418.53 198 2443.2 211.333 2463.2 228C2483.2 244.667 2498.87 263.667 2510.2 285C2522.2 306.333 2531.2 328 2537.2 350C2551.87 402 2554.53 461.333 2545.2 528H2169.2C2174.53 572 2186.53 604.667 2205.2 626C2224.53 647.333 2248.53 658 2277.2 658C2303.2 658 2322.2 653.333 2334.2 644C2346.87 634.667 2355.53 624.333 2360.2 613C2365.53 600.333 2367.53 585.667 2366.2 569H2545.2C2546.53 607 2538.2 641 2520.2 671C2512.87 683.667 2502.87 696.333 2490.2 709C2478.2 721.667 2462.53 732.667 2443.2 742C2424.53 751.333 2401.87 759 2375.2 765C2349.2 771 2318.53 774 2283.2 774C2239.2 774 2198.87 767.667 2162.2 755C2126.2 742.333 2094.87 723.333 2068.2 698C2041.53 672.667 2020.87 641.333 2006.2 604C1991.53 566 1984.2 522.333 1984.2 473ZM2365.2 419C2367.2 395 2365.53 373.333 2360.2 354C2355.53 337.333 2346.87 322.333 2334.2 309C2322.2 295.667 2303.2 289 2277.2 289C2248.53 289 2224.53 299.667 2205.2 321C2186.53 342.333 2174.53 375 2169.2 419H2365.2ZM2635.29 191H2811.29V280C2811.29 280 2816.96 274.667 2828.29 264C2840.29 253.333 2855.63 242 2874.29 230C2892.96 217.333 2913.96 205.667 2937.29 195C2960.63 184.333 2984.29 179 3008.29 179C3072.96 179 3119.96 199.333 3149.29 240C3179.29 280 3194.29 339.333 3194.29 418V755H3017.29V418C3017.29 384.667 3012.63 358.667 3003.29 340C2994.63 321.333 2976.63 312 2949.29 312C2935.96 312 2920.96 316.333 2904.29 325C2888.29 333.667 2873.29 343.333 2859.29 354C2843.29 366 2827.29 380 2811.29 396V755H2635.29V191ZM3277.87 3.99995H3454.87V755H3277.87V3.99995ZM3710.12 191L3837.12 570L3957.12 191H4142.12L3925.12 755C3921.12 795 3909.79 831 3891.12 863C3883.12 876.333 3873.12 889.333 3861.12 902C3849.12 915.333 3834.45 927 3817.12 937C3800.45 947 3780.79 955 3758.12 961C3735.45 967.667 3709.45 971 3680.12 971C3658.79 971 3638.79 969 3620.12 965C3601.45 961.667 3585.12 957.667 3571.12 953C3555.12 947.667 3540.12 941.667 3526.12 935V815C3538.12 822.333 3551.45 829 3566.12 835C3578.79 840.333 3593.12 845 3609.12 849C3625.12 853 3642.12 855 3660.12 855C3684.12 855 3702.45 849.667 3715.12 839C3727.79 829 3736.79 817.667 3742.12 805C3748.79 790.333 3752.12 773.667 3752.12 755L3525.12 191H3710.12Z" fill="black"/>
<path d="M4209.89 755V191H4306.89V275C4316.23 266.333 4328.23 256.667 4342.89 246C4358.23 234.667 4375.23 224 4393.89 214C4413.23 204 4433.89 195.667 4455.89 189C4477.89 181.667 4500.89 178 4524.89 178C4570.89 178 4606.23 186.667 4630.89 204C4655.56 221.333 4672.56 248.333 4681.89 285C4689.89 277.667 4701.23 268 4715.89 256C4730.56 244 4747.89 232.333 4767.89 221C4787.89 209 4809.89 199 4833.89 191C4858.56 182.333 4884.23 178 4910.89 178C4943.56 178 4970.56 182.333 4991.89 191C5013.23 199.667 5030.23 213 5042.89 231C5056.23 248.333 5065.56 270.667 5070.89 298C5076.23 325.333 5078.89 357.667 5078.89 395V755H4981.89V395C4981.89 355 4977.56 325 4968.89 305C4960.23 285 4940.89 275 4910.89 275C4890.23 275 4869.23 278.667 4847.89 286C4826.56 293.333 4805.89 302.333 4785.89 313C4766.56 323 4748.56 333.667 4731.89 345C4715.89 356.333 4702.89 366 4692.89 374V755H4595.89V395C4595.89 355 4591.56 325 4582.89 305C4574.23 285 4554.89 275 4524.89 275C4504.23 275 4483.23 278.667 4461.89 286C4440.56 293.333 4420.23 302.333 4400.89 313C4381.56 323 4363.56 333.667 4346.89 345C4330.89 356.333 4317.56 366 4306.89 374V755H4209.89ZM5323.88 424C5327.21 424 5330.55 424.333 5333.88 425C5337.21 425 5340.55 425 5343.88 425C5343.88 425 5352.88 425.667 5370.88 427C5389.55 428.333 5411.88 430 5437.88 432C5464.55 433.333 5492.21 435 5520.88 437C5549.55 439 5574.55 440.667 5595.88 442V395C5595.88 387.667 5594.88 377 5592.88 363C5591.55 348.333 5586.55 334 5577.88 320C5569.21 306 5555.55 294 5536.88 284C5518.21 273.333 5492.21 268 5458.88 268C5420.88 268 5392.55 274 5373.88 286C5355.21 298 5341.88 311.333 5333.88 326C5324.55 343.333 5320.21 363 5320.88 385H5215.88C5213.21 346.333 5219.88 311.667 5235.88 281C5242.55 268.333 5251.55 256 5262.88 244C5274.21 231.333 5288.88 220.333 5306.88 211C5324.88 201 5346.21 193 5370.88 187C5395.55 181 5424.88 178 5458.88 178C5512.88 178 5555.21 186.667 5585.88 204C5617.21 220.667 5640.55 240.667 5655.88 264C5671.88 287.333 5681.88 311.333 5685.88 336C5690.55 360 5692.88 379.667 5692.88 395V755H5595.88V687C5573.88 706.333 5544.55 724.667 5507.88 742C5471.21 759.333 5426.55 768 5373.88 768C5301.21 768 5243.88 752.667 5201.88 722C5159.88 691.333 5138.88 645.667 5138.88 585C5138.88 553 5144.55 526.667 5155.88 506C5167.21 484.667 5181.55 468 5198.88 456C5216.88 444 5236.88 435.667 5258.88 431C5280.88 426.333 5302.55 424 5323.88 424ZM5243.88 585C5243.88 620.333 5255.88 644.667 5279.88 658C5304.55 671.333 5335.88 678 5373.88 678C5426.55 678 5471.21 669.667 5507.88 653C5544.55 635.667 5573.88 617.667 5595.88 599V525L5343.88 509C5331.21 509 5318.88 510.333 5306.88 513C5294.88 515 5284.21 519 5274.88 525C5265.55 530.333 5257.88 538 5251.88 548C5246.55 557.333 5243.88 569.667 5243.88 585ZM5783.14 755V191H5880.14V295C5880.14 295 5885.14 289 5895.14 277C5905.8 264.333 5920.8 251 5940.14 237C5959.47 222.333 5983.14 209 6011.14 197C6039.14 184.333 6070.47 178 6105.14 178C6141.14 178 6170.8 183.333 6194.14 194C6218.14 204 6237.14 218 6251.14 236C6265.14 253.333 6274.8 274 6280.14 298C6285.47 322 6288.14 347.667 6288.14 375H6191.14C6191.14 359.667 6190.14 346 6188.14 334C6186.14 322 6181.47 311.667 6174.14 303C6166.8 293.667 6156.14 286.667 6142.14 282C6128.14 277.333 6109.14 275 6085.14 275C6059.14 275 6033.8 281 6009.14 293C5985.14 305 5963.47 318.333 5944.14 333C5921.47 350.333 5900.14 370 5880.14 392V755H5783.14ZM6455.33 3.99995V431L6756.33 191H6903.33L6674.33 374L6908.33 755H6791.33L6596.33 437L6455.33 549V755H6358.33V3.99995H6455.33ZM6948.45 473C6948.45 427.667 6955.78 387 6970.45 351C6985.12 315 7005.12 284.333 7030.45 259C7056.45 233 7087.12 213.333 7122.45 200C7157.78 186 7196.12 179 7237.45 179C7275.45 179 7308.12 184 7335.45 194C7363.45 203.333 7387.12 216 7406.45 232C7425.78 247.333 7441.45 265.333 7453.45 286C7465.45 306 7474.78 326.667 7481.45 348C7496.78 397.333 7501.78 453.667 7496.45 517H7056.45C7060.45 546.333 7068.12 571.333 7079.45 592C7090.78 612 7104.45 628.667 7120.45 642C7137.12 654.667 7155.45 664 7175.45 670C7195.45 675.333 7216.12 678 7237.45 678C7279.45 678 7310.78 672.667 7331.45 662C7352.12 651.333 7366.78 639.333 7375.45 626C7385.45 611.333 7390.12 594.333 7389.45 575H7496.45C7495.12 611 7485.12 643 7466.45 671C7458.45 683 7448.12 695 7435.45 707C7423.45 718.333 7408.12 728.667 7389.45 738C7371.45 746.667 7349.78 753.667 7324.45 759C7299.78 765 7270.78 768 7237.45 768C7196.12 768 7157.78 761 7122.45 747C7087.12 733 7056.45 713.333 7030.45 688C7005.12 662.667 6985.12 631.667 6970.45 595C6955.78 558.333 6948.45 517.667 6948.45 473ZM7391.45 425C7392.12 395.667 7387.12 369.667 7376.45 347C7367.12 327.667 7352.12 310 7331.45 294C7310.78 277.333 7279.45 269 7237.45 269C7216.78 269 7196.45 272 7176.45 278C7156.45 283.333 7138.12 292.333 7121.45 305C7105.45 317 7091.78 333 7080.45 353C7069.12 372.333 7061.12 396.333 7056.45 425H7391.45ZM7559.78 283V191H7654.78V111H7751.78V191H7995.78V283H7751.78V581C7751.78 601.667 7753.11 618.333 7755.78 631C7758.44 643.667 7763.11 653.667 7769.78 661C7776.44 667.667 7785.44 672.333 7796.78 675C7808.11 677 7822.44 678 7839.78 678C7856.44 678 7873.78 676.333 7891.78 673C7909.78 669.667 7926.44 666.333 7941.78 663C7960.44 658.333 7978.44 653.333 7995.78 648V738C7979.11 743.333 7961.78 748.333 7943.78 753C7928.44 757 7911.44 760.333 7892.78 763C7874.78 766.333 7857.11 768 7839.78 768C7795.11 768 7760.11 763 7734.78 753C7710.11 743 7691.78 729.667 7679.78 713C7667.78 695.667 7660.44 675.667 7657.78 653C7655.78 630.333 7654.78 606.333 7654.78 581V283H7559.78Z" fill="black"/>
</svg>
