<svg width="3195" height="829" viewBox="0 0 3195 829" fill="none" xmlns="http://www.w3.org/2000/svg">
<path d="M660 498.6C660 680.854 512.254 828.6 330 828.6C147.746 828.6 0 680.854 0 498.6C0 316.346 147.746 168.6 330 168.6C512.254 168.6 660 316.346 660 498.6Z" fill="white"/>
<path d="M677.36 825.6V167.04H815.6L818.48 275.52L806.96 270.72C819.76 233.6 840.56 205.12 869.36 185.28C898.16 165.44 931.76 155.52 970.16 155.52C1018.16 155.52 1058.16 167.36 1090.16 191.04C1122.16 214.72 1146.16 247.04 1162.16 288C1178.8 328.32 1187.12 373.76 1187.12 424.32C1187.12 474.24 1178.8 519.68 1162.16 560.64C1146.16 601.6 1121.84 633.92 1089.2 657.6C1057.2 681.28 1017.2 693.12 969.2 693.12C944.24 693.12 920.88 688.64 899.12 679.68C877.36 670.08 858.48 656.96 842.48 640.32C827.12 623.68 815.92 603.84 808.88 580.8L821.36 573.12V825.6H677.36ZM929.84 582.72C963.76 582.72 990.32 568.64 1009.52 540.48C1029.36 512.32 1039.28 473.6 1039.28 424.32C1039.28 375.04 1029.36 336.32 1009.52 308.16C990.32 280 963.76 265.92 929.84 265.92C907.44 265.92 887.92 272 871.28 284.16C855.28 295.68 842.8 313.28 833.84 336.96C825.52 360.64 821.36 389.76 821.36 424.32C821.36 458.88 825.52 488 833.84 511.68C842.8 535.36 855.28 553.28 871.28 565.44C887.92 576.96 907.44 582.72 929.84 582.72ZM1507.78 693.12C1455.3 693.12 1409.54 682.24 1370.5 660.48C1332.1 638.08 1302.02 606.72 1280.26 566.4C1259.14 526.08 1248.58 478.72 1248.58 424.32C1248.58 369.92 1259.14 322.88 1280.26 283.2C1302.02 242.88 1332.1 211.52 1370.5 189.12C1408.9 166.72 1454.34 155.52 1506.82 155.52C1558.02 155.52 1602.5 166.72 1640.26 189.12C1678.02 211.52 1707.14 243.52 1727.62 285.12C1748.74 326.72 1759.3 376.32 1759.3 433.92V462.72H1397.38C1399.3 503.68 1410.18 534.08 1430.02 553.92C1450.5 573.76 1477.38 583.68 1510.66 583.68C1534.98 583.68 1555.14 578.56 1571.14 568.32C1587.78 558.08 1599.62 542.4 1606.66 521.28L1751.62 529.92C1738.18 581.12 1709.7 621.12 1666.18 649.92C1622.66 678.72 1569.86 693.12 1507.78 693.12ZM1397.38 374.4H1611.46C1609.54 336.64 1598.98 308.48 1579.78 289.92C1561.22 271.36 1536.9 262.08 1506.82 262.08C1476.74 262.08 1451.78 272 1431.94 291.84C1412.74 311.04 1401.22 338.56 1397.38 374.4ZM1848.3 681.6V167.04H1977.9L1983.66 317.76L1965.42 312.96C1970.54 274.56 1980.78 243.84 1996.14 220.8C2012.14 197.76 2031.98 181.12 2055.66 170.88C2079.34 160.64 2105.26 155.52 2133.42 155.52C2170.54 155.52 2201.9 163.52 2227.5 179.52C2253.74 195.52 2273.58 218.24 2287.02 247.68C2301.1 276.48 2308.14 310.72 2308.14 350.4V681.6H2164.14V398.4C2164.14 370.88 2161.9 347.52 2157.42 328.32C2152.94 309.12 2144.94 294.72 2133.42 285.12C2121.9 274.88 2105.9 269.76 2085.42 269.76C2055.34 269.76 2032.3 280.96 2016.3 303.36C2000.3 325.12 1992.3 356.8 1992.3 398.4V681.6H1848.3ZM2562.07 681.6C2519.83 681.6 2486.87 671.04 2463.19 649.92C2439.51 628.8 2427.67 594.56 2427.67 547.2V-0.000427246H2571.67V531.84C2571.67 547.2 2575.19 558.08 2582.23 564.48C2589.27 570.88 2599.51 574.08 2612.95 574.08H2647.51V681.6H2562.07ZM2738.04 825.6V718.08H2806.2C2822.84 718.08 2835 715.52 2842.68 710.4C2851 705.92 2857.4 697.6 2861.88 685.44L2872.44 655.68H2833.08L2652.6 167.04H2799.48L2917.56 521.28L3027.96 167.04H3174.84L2977.08 730.56C2965.56 764.48 2948.92 788.8 2927.16 803.52C2905.4 818.24 2875 825.6 2835.96 825.6H2738.04Z" fill="white"/>
</svg>
