<svg width="2865" height="749" viewBox="0 0 2865 749" fill="none" xmlns="http://www.w3.org/2000/svg">
<path d="M609 444.5C609 612.671 472.671 749 304.5 749C136.329 749 0 612.671 0 444.5C0 276.329 136.329 140 304.5 140C472.671 140 609 276.329 609 444.5Z" fill="white"/>
<path d="M635.1 742.5V159.4H757.5L760.05 255.45L749.85 251.2C761.183 218.333 779.6 193.117 805.1 175.55C830.6 157.983 860.35 149.2 894.35 149.2C936.85 149.2 972.267 159.683 1000.6 180.65C1028.93 201.617 1050.18 230.233 1064.35 266.5C1079.08 302.2 1086.45 342.433 1086.45 387.2C1086.45 431.4 1079.08 471.633 1064.35 507.9C1050.18 544.167 1028.65 572.783 999.75 593.75C971.417 614.717 936 625.2 893.5 625.2C871.4 625.2 850.717 621.233 831.45 613.3C812.183 604.8 795.467 593.183 781.3 578.45C767.7 563.717 757.783 546.15 751.55 525.75L762.6 518.95V742.5H635.1ZM858.65 527.45C888.683 527.45 912.2 514.983 929.2 490.05C946.767 465.117 955.55 430.833 955.55 387.2C955.55 343.567 946.767 309.283 929.2 284.35C912.2 259.417 888.683 246.95 858.65 246.95C838.817 246.95 821.533 252.333 806.8 263.1C792.633 273.3 781.583 288.883 773.65 309.85C766.283 330.817 762.6 356.6 762.6 387.2C762.6 417.8 766.283 443.583 773.65 464.55C781.583 485.517 792.633 501.383 806.8 512.15C821.533 522.35 838.817 527.45 858.65 527.45ZM1370.37 625.2C1323.9 625.2 1283.39 615.567 1248.82 596.3C1214.82 576.467 1188.19 548.7 1168.92 513C1150.22 477.3 1140.87 435.367 1140.87 387.2C1140.87 339.033 1150.22 297.383 1168.92 262.25C1188.19 226.55 1214.82 198.783 1248.82 178.95C1282.82 159.117 1323.05 149.2 1369.52 149.2C1414.85 149.2 1454.24 159.117 1487.67 178.95C1521.1 198.783 1546.89 227.117 1565.02 263.95C1583.72 300.783 1593.07 344.7 1593.07 395.7V421.2H1272.62C1274.32 457.467 1283.95 484.383 1301.52 501.95C1319.65 519.517 1343.45 528.3 1372.92 528.3C1394.45 528.3 1412.3 523.767 1426.47 514.7C1441.2 505.633 1451.69 491.75 1457.92 473.05L1586.27 480.7C1574.37 526.033 1549.15 561.45 1510.62 586.95C1472.09 612.45 1425.34 625.2 1370.37 625.2ZM1272.62 343H1462.17C1460.47 309.567 1451.12 284.633 1434.12 268.2C1417.69 251.767 1396.15 243.55 1369.52 243.55C1342.89 243.55 1320.79 252.333 1303.22 269.9C1286.22 286.9 1276.02 311.267 1272.62 343ZM1671.87 615V159.4H1786.62L1791.72 292.85L1775.57 288.6C1780.1 254.6 1789.17 227.4 1802.77 207C1816.93 186.6 1834.5 171.867 1855.47 162.8C1876.43 153.733 1899.38 149.2 1924.32 149.2C1957.18 149.2 1984.95 156.283 2007.62 170.45C2030.85 184.617 2048.42 204.733 2060.32 230.8C2072.78 256.3 2079.02 286.617 2079.02 321.75V615H1951.52V364.25C1951.52 339.883 1949.53 319.2 1945.57 302.2C1941.6 285.2 1934.52 272.45 1924.32 263.95C1914.12 254.883 1899.95 250.35 1881.82 250.35C1855.18 250.35 1834.78 260.267 1820.62 280.1C1806.45 299.367 1799.37 327.417 1799.37 364.25V615H1671.87ZM2303.86 615C2266.46 615 2237.27 605.65 2216.31 586.95C2195.34 568.25 2184.86 537.933 2184.86 496V11.5H2312.36V482.4C2312.36 496 2315.47 505.633 2321.71 511.3C2327.94 516.967 2337.01 519.8 2348.91 519.8H2379.51V615H2303.86ZM2459.66 742.5V647.3H2520.01C2534.74 647.3 2545.51 645.033 2552.31 640.5C2559.67 636.533 2565.34 629.167 2569.31 618.4L2578.66 592.05H2543.81L2384.01 159.4H2514.06L2618.61 473.05L2716.36 159.4H2846.41L2671.31 658.35C2661.11 688.383 2646.37 709.917 2627.11 722.95C2607.84 735.983 2580.92 742.5 2546.36 742.5H2459.66Z" fill="white"/>
</svg>
